<svg width="120" height="24" viewBox="0 0 120 24" fill="none" xmlns="http://www.w3.org/2000/svg">
<path d="M11.0489 3.42705C11.3483 2.50574 12.6517 2.50574 12.9511 3.42705L14.3574 7.75532C14.4913 8.16734 14.8752 8.4463 15.3085 8.4463H19.8595C20.8282 8.4463 21.231 9.68592 20.4473 10.2553L16.7654 12.9303C16.4149 13.185 16.2683 13.6364 16.4021 14.0484L17.8085 18.3766C18.1078 19.298 17.0533 20.0641 16.2696 19.4947L12.5878 16.8197C12.2373 16.565 11.7627 16.565 11.4122 16.8197L7.73037 19.4947C6.94665 20.0641 5.89217 19.298 6.19153 18.3766L7.59787 14.0484C7.73174 13.6364 7.58508 13.185 7.2346 12.9303L3.55275 10.2553C2.76904 9.68592 3.17181 8.4463 4.14053 8.4463H8.69155C9.12477 8.4463 9.50873 8.16734 9.6426 7.75532L11.0489 3.42705Z" fill="#FFCC47"/>
<path d="M35.0489 3.42705C35.3483 2.50574 36.6517 2.50574 36.9511 3.42705L38.3574 7.75532C38.4913 8.16734 38.8752 8.4463 39.3085 8.4463H43.8595C44.8282 8.4463 45.231 9.68592 44.4473 10.2553L40.7654 12.9303C40.4149 13.185 40.2683 13.6364 40.4021 14.0484L41.8085 18.3766C42.1078 19.298 41.0533 20.0641 40.2696 19.4947L36.5878 16.8197C36.2373 16.565 35.7627 16.565 35.4122 16.8197L31.7304 19.4947C30.9467 20.0641 29.8922 19.298 30.1915 18.3766L31.5979 14.0484C31.7317 13.6364 31.5851 13.185 31.2346 12.9303L27.5527 10.2553C26.769 9.68592 27.1718 8.4463 28.1405 8.4463H32.6915C33.1248 8.4463 33.5087 8.16734 33.6426 7.75532L35.0489 3.42705Z" fill="#FFCC47"/>
<path d="M59.0489 3.42705C59.3483 2.50574 60.6517 2.50574 60.9511 3.42705L62.3574 7.75532C62.4913 8.16734 62.8752 8.4463 63.3085 8.4463H67.8595C68.8282 8.4463 69.231 9.68592 68.4473 10.2553L64.7654 12.9303C64.4149 13.185 64.2683 13.6364 64.4021 14.0484L65.8085 18.3766C66.1078 19.298 65.0533 20.0641 64.2696 19.4947L60.5878 16.8197C60.2373 16.565 59.7627 16.565 59.4122 16.8197L55.7304 19.4947C54.9467 20.0641 53.8922 19.298 54.1915 18.3766L55.5979 14.0484C55.7317 13.6364 55.5851 13.185 55.2346 12.9303L51.5527 10.2553C50.769 9.68592 51.1718 8.4463 52.1405 8.4463H56.6915C57.1248 8.4463 57.5087 8.16734 57.6426 7.75532L59.0489 3.42705Z" fill="#FFCC47"/>
<path d="M83.0489 3.42705C83.3483 2.50574 84.6517 2.50574 84.9511 3.42705L86.3574 7.75532C86.4913 8.16734 86.8752 8.4463 87.3085 8.4463H91.8595C92.8282 8.4463 93.231 9.68592 92.4473 10.2553L88.7654 12.9303C88.4149 13.185 88.2683 13.6364 88.4021 14.0484L89.8085 18.3766C90.1078 19.298 89.0533 20.0641 88.2696 19.4947L84.5878 16.8197C84.2373 16.565 83.7627 16.565 83.4122 16.8197L79.7304 19.4947C78.9467 20.0641 77.8922 19.298 78.1915 18.3766L79.5979 14.0484C79.7317 13.6364 79.5851 13.185 79.2346 12.9303L75.5527 10.2553C74.769 9.68592 75.1718 8.4463 76.1405 8.4463H80.6915C81.1248 8.4463 81.5087 8.16734 81.6426 7.75532L83.0489 3.42705Z" fill="#FFCC47"/>
<path d="M107.049 3.42705C107.348 2.50574 108.652 2.50574 108.951 3.42705L110.357 7.75532C110.491 8.16734 110.875 8.4463 111.308 8.4463H115.859C116.828 8.4463 117.231 9.68592 116.447 10.2553L112.765 12.9303C112.415 13.185 112.268 13.6364 112.402 14.0484L113.808 18.3766C114.108 19.298 113.053 20.0641 112.27 19.4947L108.588 16.8197C108.237 16.565 107.763 16.565 107.412 16.8197L103.73 19.4947C102.947 20.0641 101.892 19.298 102.192 18.3766L103.598 14.0484C103.732 13.6364 103.585 13.185 103.235 12.9303L99.5527 10.2553C98.769 9.68592 99.1718 8.4463 100.141 8.4463H104.692C105.125 8.4463 105.509 8.16734 105.643 7.75532L107.049 3.42705Z" fill="#FFCC47"/>
</svg>
