<svg width="100" height="25" viewBox="0 0 100 25" fill="none" xmlns="http://www.w3.org/2000/svg">
<path d="M0.761364 24V0.727272H16.9886V5.29545H6.38636V10.0682H16.1591V14.6477H6.38636V19.4318H16.9886V24H0.761364ZM26.8864 24.25C25.5985 24.25 24.428 23.9167 23.375 23.25C22.322 22.5833 21.4811 21.5833 20.8523 20.25C20.2235 18.9167 19.9091 17.2614 19.9091 15.2841C19.9091 13.2311 20.2348 11.5417 20.8864 10.2159C21.5379 8.89015 22.3902 7.90909 23.4432 7.27273C24.5038 6.63636 25.6439 6.31818 26.8636 6.31818C27.7803 6.31818 28.5644 6.47727 29.2159 6.79545C29.8674 7.10606 30.4053 7.50758 30.8295 8C31.2538 8.49242 31.5758 9.00379 31.7955 9.53409H31.9091V0.727272H37.4659V24H31.9659V21.1705H31.7955C31.5606 21.7083 31.2273 22.2121 30.7955 22.6818C30.3636 23.1515 29.822 23.5303 29.1705 23.8182C28.5265 24.1061 27.7652 24.25 26.8864 24.25ZM28.8182 19.9205C29.4924 19.9205 30.0682 19.7311 30.5455 19.3523C31.0227 18.9659 31.3902 18.4242 31.6477 17.7273C31.9053 17.0303 32.0341 16.2121 32.0341 15.2727C32.0341 14.3182 31.9053 13.4962 31.6477 12.8068C31.3977 12.1174 31.0303 11.5871 30.5455 11.2159C30.0682 10.8447 29.4924 10.6591 28.8182 10.6591C28.1288 10.6591 27.5455 10.8485 27.0682 11.2273C26.5909 11.6061 26.2273 12.1402 25.9773 12.8295C25.7348 13.5189 25.6136 14.3333 25.6136 15.2727C25.6136 16.2121 25.7386 17.0303 25.9886 17.7273C26.2386 18.4242 26.5985 18.9659 27.0682 19.3523C27.5455 19.7311 28.1288 19.9205 28.8182 19.9205ZM52.2415 16.4659V6.54545H57.7869V24H52.4915V20.75H52.3097C51.9233 21.8182 51.2642 22.6667 50.3324 23.2955C49.4081 23.9167 48.2907 24.2273 46.9801 24.2273C45.7907 24.2273 44.7453 23.9545 43.8438 23.4091C42.9422 22.8636 42.2415 22.1023 41.7415 21.125C41.2415 20.1402 40.9877 18.9886 40.9801 17.6705V6.54545H46.5369V16.5795C46.5445 17.5265 46.7945 18.2727 47.2869 18.8182C47.7794 19.3636 48.4498 19.6364 49.2983 19.6364C49.8513 19.6364 50.3475 19.5152 50.7869 19.2727C51.2339 19.0227 51.5862 18.6629 51.8438 18.1932C52.1089 17.7159 52.2415 17.1402 52.2415 16.4659ZM64.4489 24.3295C63.6307 24.3295 62.9299 24.0417 62.3466 23.4659C61.7708 22.8902 61.4867 22.1932 61.4943 21.375C61.4867 20.572 61.7708 19.8864 62.3466 19.3182C62.9299 18.7424 63.6307 18.4545 64.4489 18.4545C65.2216 18.4545 65.9034 18.7424 66.4943 19.3182C67.0928 19.8864 67.3958 20.572 67.4034 21.375C67.3958 21.9205 67.2519 22.4167 66.9716 22.8636C66.6989 23.3106 66.339 23.6667 65.892 23.9318C65.4527 24.197 64.9716 24.3295 64.4489 24.3295Z" fill="#2962FF"/>
<path d="M76.6989 0.727272V24H71.0739V0.727272H76.6989ZM79.4688 5.29545V0.727272H99.1392V5.29545H92.0824V24H86.5369V5.29545H79.4688Z" fill="#FFEE58"/>
</svg>
