<svg width="232" height="80" viewBox="0 0 232 80" fill="none" xmlns="http://www.w3.org/2000/svg">
<rect width="232" height="80" rx="16" fill="#FFEA00"/>
<rect x="12" y="8" width="64" height="64" rx="10" fill="white"/>
<path d="M43.6697 57.36L29.0906 49.3217V37.1883L21.6 33.0933L43.6697 20.96L65.84 33.0933V49.1194H62.8236V34.8628L58.2488 37.1883V49.3217L43.6697 57.36ZM43.6697 41.7889L59.5056 33.0933L43.6697 24.5494L27.9344 33.0933L43.6697 41.7889ZM43.6697 53.9222L55.2325 47.5017V39.0083L43.6697 45.2267L32.107 38.9072V47.5017L43.6697 53.9222Z" fill="#2962FF"/>
<path d="M89.9688 37.2386C88.696 37.2386 87.5653 37.0085 86.5767 36.5483C85.5881 36.0881 84.8068 35.4545 84.233 34.6477C83.6648 33.8409 83.3693 32.9148 83.3466 31.8693H87.4375C87.4716 32.5114 87.733 33.0284 88.2216 33.4205C88.7102 33.8068 89.2926 34 89.9688 34C90.4972 34 90.9659 33.8835 91.375 33.6506C91.7841 33.4176 92.1051 33.0909 92.3381 32.6705C92.571 32.2443 92.6847 31.7557 92.679 31.2045C92.6847 30.642 92.5682 30.1506 92.3295 29.7301C92.0966 29.3097 91.7727 28.983 91.358 28.75C90.9489 28.5114 90.4773 28.392 89.9432 28.392C89.4375 28.3864 88.9574 28.4972 88.5028 28.7244C88.054 28.9517 87.7131 29.2614 87.4801 29.6534L83.7557 28.9545L84.5142 19.5455H95.7131V22.946H87.983L87.5824 27.0625H87.6847C87.9744 26.5795 88.4403 26.1818 89.0824 25.8693C89.7301 25.5511 90.4659 25.392 91.2898 25.392C92.3352 25.392 93.267 25.6364 94.0852 26.125C94.9091 26.608 95.5568 27.2784 96.0284 28.1364C96.5057 28.9943 96.7443 29.9773 96.7443 31.0852C96.7443 32.2841 96.4602 33.3466 95.892 34.2727C95.3295 35.1989 94.5398 35.9261 93.5227 36.4545C92.5114 36.9773 91.3267 37.2386 89.9688 37.2386ZM106.279 37.4261C104.756 37.4261 103.444 37.0653 102.342 36.3438C101.239 35.6165 100.39 34.5739 99.7933 33.2159C99.1967 31.8523 98.9013 30.2131 98.907 28.2983C98.9126 26.3835 99.2109 24.7585 99.8018 23.4233C100.398 22.0824 101.245 21.0625 102.342 20.3636C103.444 19.6591 104.756 19.3068 106.279 19.3068C107.802 19.3068 109.114 19.6591 110.217 20.3636C111.325 21.0625 112.177 22.0824 112.773 23.4233C113.37 24.7642 113.665 26.3892 113.66 28.2983C113.66 30.2187 113.362 31.8608 112.765 33.2244C112.168 34.5881 111.319 35.6307 110.217 36.3523C109.12 37.0682 107.808 37.4261 106.279 37.4261ZM106.279 33.9744C107.188 33.9744 107.924 33.5114 108.487 32.5852C109.049 31.6534 109.327 30.2244 109.322 28.2983C109.322 27.0369 109.194 25.9972 108.938 25.179C108.683 24.3551 108.327 23.7415 107.873 23.3381C107.418 22.9347 106.887 22.733 106.279 22.733C105.376 22.733 104.646 23.1903 104.089 24.1051C103.532 25.0142 103.251 26.4119 103.245 28.2983C103.239 29.5767 103.362 30.6364 103.612 31.4773C103.867 32.3182 104.225 32.946 104.685 33.3608C105.146 33.7699 105.677 33.9744 106.279 33.9744ZM121.309 34.4773V22.1364H124.744V34.4773H121.309ZM116.852 30.0284V26.5852H129.192V30.0284H116.852Z" fill="#2962FF"/>
<path d="M83.4091 62V50.3636H84.8182V56.1364H84.9545L90.1818 50.3636H92.0227L87.1364 55.6136L92.0227 62H90.3182L86.2727 56.5909L84.8182 58.2273V62H83.4091ZM96.6832 62.1818C95.8423 62.1818 95.117 61.9962 94.5071 61.625C93.901 61.25 93.4332 60.7273 93.1037 60.0568C92.7779 59.3826 92.6151 58.5985 92.6151 57.7045C92.6151 56.8106 92.7779 56.0227 93.1037 55.3409C93.4332 54.6553 93.8916 54.1212 94.4787 53.7386C95.0696 53.3523 95.759 53.1591 96.5469 53.1591C97.0014 53.1591 97.4503 53.2348 97.8935 53.3864C98.3366 53.5379 98.7401 53.7841 99.1037 54.125C99.4673 54.4621 99.7571 54.9091 99.973 55.4659C100.189 56.0227 100.297 56.7083 100.297 57.5227V58.0909H93.5696V56.9318H98.9332C98.9332 56.4394 98.8348 56 98.6378 55.6136C98.4446 55.2273 98.1681 54.9223 97.8082 54.6989C97.4522 54.4754 97.0317 54.3636 96.5469 54.3636C96.0128 54.3636 95.5507 54.4962 95.1605 54.7614C94.7741 55.0227 94.4768 55.3636 94.2685 55.7841C94.0601 56.2045 93.956 56.6553 93.956 57.1364V57.9091C93.956 58.5682 94.0696 59.1269 94.2969 59.5852C94.5279 60.0398 94.848 60.3864 95.2571 60.625C95.6662 60.8598 96.1416 60.9773 96.6832 60.9773C97.0355 60.9773 97.3537 60.928 97.6378 60.8295C97.9257 60.7273 98.1738 60.5758 98.3821 60.375C98.5904 60.1705 98.7514 59.9167 98.8651 59.6136L100.161 59.9773C100.024 60.4167 99.795 60.803 99.473 61.1364C99.151 61.4659 98.7533 61.7235 98.2798 61.9091C97.8063 62.0909 97.2741 62.1818 96.6832 62.1818ZM103.678 50.3636V62H102.337V50.3636H103.678ZM108.702 62.2045C108.149 62.2045 107.647 62.1004 107.196 61.892C106.745 61.6799 106.387 61.375 106.122 60.9773C105.857 60.5758 105.724 60.0909 105.724 59.5227C105.724 59.0227 105.823 58.6174 106.02 58.3068C106.217 57.9924 106.48 57.7462 106.81 57.5682C107.139 57.3902 107.503 57.2576 107.901 57.1705C108.302 57.0795 108.705 57.0076 109.111 56.9545C109.641 56.8864 110.071 56.8352 110.401 56.8011C110.734 56.7633 110.976 56.7008 111.128 56.6136C111.283 56.5265 111.361 56.375 111.361 56.1591V56.1136C111.361 55.553 111.207 55.1174 110.901 54.8068C110.598 54.4962 110.137 54.3409 109.52 54.3409C108.88 54.3409 108.378 54.4811 108.014 54.7614C107.651 55.0417 107.395 55.3409 107.247 55.6591L105.974 55.2045C106.202 54.6742 106.505 54.2614 106.884 53.9659C107.266 53.6667 107.683 53.4583 108.134 53.3409C108.588 53.2197 109.035 53.1591 109.474 53.1591C109.755 53.1591 110.077 53.1932 110.44 53.2614C110.808 53.3258 111.162 53.4602 111.503 53.6648C111.848 53.8693 112.134 54.178 112.361 54.5909C112.588 55.0038 112.702 55.5568 112.702 56.25V62H111.361V60.8182H111.293C111.202 61.0076 111.05 61.2102 110.838 61.4261C110.626 61.642 110.344 61.8258 109.991 61.9773C109.639 62.1288 109.209 62.2045 108.702 62.2045ZM108.906 61C109.437 61 109.884 60.8958 110.247 60.6875C110.615 60.4792 110.891 60.2102 111.077 59.8807C111.266 59.5511 111.361 59.2045 111.361 58.8409V57.6136C111.304 57.6818 111.179 57.7443 110.986 57.8011C110.796 57.8542 110.577 57.9015 110.327 57.9432C110.08 57.9811 109.84 58.0152 109.605 58.0455C109.374 58.072 109.187 58.0947 109.043 58.1136C108.694 58.1591 108.368 58.233 108.065 58.3352C107.766 58.4337 107.524 58.5833 107.338 58.7841C107.156 58.9811 107.065 59.25 107.065 59.5909C107.065 60.0568 107.238 60.4091 107.582 60.6477C107.931 60.8826 108.372 61 108.906 61ZM121.331 55.2273L120.126 55.5682C120.051 55.3674 119.939 55.1723 119.791 54.983C119.647 54.7898 119.45 54.6307 119.2 54.5057C118.95 54.3807 118.63 54.3182 118.24 54.3182C117.706 54.3182 117.261 54.4413 116.905 54.6875C116.553 54.9299 116.376 55.2386 116.376 55.6136C116.376 55.947 116.498 56.2102 116.74 56.4034C116.982 56.5966 117.361 56.7576 117.876 56.8864L119.172 57.2045C119.952 57.3939 120.534 57.6837 120.916 58.0739C121.299 58.4602 121.49 58.9583 121.49 59.5682C121.49 60.0682 121.346 60.5152 121.058 60.9091C120.774 61.303 120.376 61.6136 119.865 61.8409C119.354 62.0682 118.759 62.1818 118.081 62.1818C117.191 62.1818 116.454 61.9886 115.871 61.6023C115.287 61.2159 114.918 60.6515 114.763 59.9091L116.036 59.5909C116.157 60.0606 116.386 60.4129 116.723 60.6477C117.064 60.8826 117.509 61 118.058 61C118.683 61 119.179 60.8674 119.547 60.6023C119.918 60.3333 120.104 60.0114 120.104 59.6364C120.104 59.3333 119.998 59.0795 119.786 58.875C119.573 58.6667 119.248 58.5114 118.808 58.4091L117.354 58.0682C116.554 57.8788 115.967 57.5852 115.592 57.1875C115.221 56.786 115.036 56.2841 115.036 55.6818C115.036 55.1894 115.174 54.7538 115.45 54.375C115.731 53.9962 116.111 53.6989 116.592 53.483C117.077 53.267 117.626 53.1591 118.24 53.1591C119.104 53.1591 119.782 53.3485 120.274 53.7273C120.77 54.1061 121.123 54.6061 121.331 55.2273ZM131.304 62.1591C130.539 62.1591 129.88 62.0189 129.327 61.7386C128.774 61.4583 128.348 61.0739 128.048 60.5852C127.749 60.0966 127.599 59.5379 127.599 58.9091C127.599 58.4242 127.702 57.9943 127.906 57.6193C128.115 57.2405 128.401 56.8902 128.764 56.5682C129.132 56.2424 129.554 55.9167 130.031 55.5909L131.713 54.3409C132.043 54.125 132.306 53.8939 132.503 53.6477C132.704 53.4015 132.804 53.0795 132.804 52.6818C132.804 52.3864 132.673 52.1004 132.412 51.8239C132.154 51.5473 131.815 51.4091 131.395 51.4091C131.099 51.4091 130.838 51.4848 130.611 51.6364C130.387 51.7841 130.211 51.9735 130.082 52.2045C129.957 52.4318 129.895 52.6667 129.895 52.9091C129.895 53.1818 129.969 53.4583 130.116 53.7386C130.268 54.0152 130.459 54.2992 130.69 54.5909C130.925 54.8788 131.168 55.1742 131.418 55.4773L136.759 62H135.145L130.736 56.6818C130.327 56.1894 129.955 55.7424 129.622 55.3409C129.289 54.9394 129.024 54.5436 128.827 54.1534C128.63 53.7633 128.531 53.3409 128.531 52.8864C128.531 52.3636 128.647 51.9053 128.878 51.5114C129.113 51.1136 129.44 50.8049 129.861 50.5852C130.285 50.3617 130.781 50.25 131.349 50.25C131.933 50.25 132.435 50.3636 132.855 50.5909C133.276 50.8144 133.599 51.1117 133.827 51.483C134.054 51.8504 134.168 52.25 134.168 52.6818C134.168 53.2386 134.029 53.7216 133.753 54.1307C133.476 54.5398 133.099 54.9205 132.622 55.2727L130.304 57C129.781 57.3864 129.427 57.7614 129.241 58.125C129.056 58.4886 128.963 58.75 128.963 58.9091C128.963 59.2727 129.058 59.6117 129.247 59.9261C129.437 60.2405 129.704 60.4943 130.048 60.6875C130.393 60.8807 130.796 60.9773 131.259 60.9773C131.698 60.9773 132.126 60.8845 132.543 60.6989C132.959 60.5095 133.336 60.2367 133.673 59.8807C134.014 59.5246 134.283 59.0966 134.48 58.5966C134.681 58.0966 134.781 57.5341 134.781 56.9091H136.077C136.077 57.6818 135.988 58.3125 135.81 58.8011C135.632 59.2898 135.431 59.6723 135.207 59.9489C134.984 60.2254 134.804 60.4318 134.668 60.5682C134.622 60.625 134.58 60.6818 134.543 60.7386C134.505 60.7955 134.463 60.8523 134.418 60.9091C134.043 61.3295 133.569 61.6439 132.997 61.8523C132.425 62.0568 131.861 62.1591 131.304 62.1591ZM142.925 62V50.3636H146.993C147.804 50.3636 148.472 50.5038 148.999 50.7841C149.525 51.0606 149.917 51.4337 150.175 51.9034C150.432 52.3693 150.561 52.8864 150.561 53.4545C150.561 53.9545 150.472 54.3674 150.294 54.6932C150.12 55.0189 149.889 55.2765 149.601 55.4659C149.317 55.6553 149.008 55.7955 148.675 55.8864V56C149.031 56.0227 149.389 56.1477 149.749 56.375C150.108 56.6023 150.41 56.928 150.652 57.3523C150.894 57.7765 151.016 58.2955 151.016 58.9091C151.016 59.4924 150.883 60.017 150.618 60.483C150.353 60.9489 149.934 61.3182 149.362 61.5909C148.79 61.8636 148.046 62 147.129 62H142.925ZM144.334 60.75H147.129C148.05 60.75 148.703 60.572 149.089 60.2159C149.48 59.8561 149.675 59.4205 149.675 58.9091C149.675 58.5152 149.574 58.1515 149.374 57.8182C149.173 57.4811 148.887 57.2121 148.516 57.0114C148.144 56.8068 147.705 56.7045 147.197 56.7045H144.334V60.75ZM144.334 55.4773H146.947C147.372 55.4773 147.754 55.3939 148.095 55.2273C148.44 55.0606 148.713 54.8258 148.913 54.5227C149.118 54.2197 149.22 53.8636 149.22 53.4545C149.22 52.9432 149.042 52.5095 148.686 52.1534C148.33 51.7936 147.766 51.6136 146.993 51.6136H144.334V55.4773ZM156.695 62.1818C155.907 62.1818 155.215 61.9943 154.621 61.6193C154.03 61.2443 153.568 60.7197 153.234 60.0455C152.905 59.3712 152.74 58.5833 152.74 57.6818C152.74 56.7727 152.905 55.9792 153.234 55.3011C153.568 54.6231 154.03 54.0966 154.621 53.7216C155.215 53.3466 155.907 53.1591 156.695 53.1591C157.482 53.1591 158.172 53.3466 158.763 53.7216C159.357 54.0966 159.82 54.6231 160.149 55.3011C160.482 55.9792 160.649 56.7727 160.649 57.6818C160.649 58.5833 160.482 59.3712 160.149 60.0455C159.82 60.7197 159.357 61.2443 158.763 61.6193C158.172 61.9943 157.482 62.1818 156.695 62.1818ZM156.695 60.9773C157.293 60.9773 157.786 60.8239 158.172 60.517C158.558 60.2102 158.844 59.8068 159.03 59.3068C159.215 58.8068 159.308 58.2652 159.308 57.6818C159.308 57.0985 159.215 56.5549 159.03 56.0511C158.844 55.5473 158.558 55.1402 158.172 54.8295C157.786 54.5189 157.293 54.3636 156.695 54.3636C156.096 54.3636 155.604 54.5189 155.217 54.8295C154.831 55.1402 154.545 55.5473 154.359 56.0511C154.174 56.5549 154.081 57.0985 154.081 57.6818C154.081 58.2652 154.174 58.8068 154.359 59.3068C154.545 59.8068 154.831 60.2102 155.217 60.517C155.604 60.8239 156.096 60.9773 156.695 60.9773ZM166.241 62.1818C165.454 62.1818 164.762 61.9943 164.168 61.6193C163.577 61.2443 163.115 60.7197 162.781 60.0455C162.452 59.3712 162.287 58.5833 162.287 57.6818C162.287 56.7727 162.452 55.9792 162.781 55.3011C163.115 54.6231 163.577 54.0966 164.168 53.7216C164.762 53.3466 165.454 53.1591 166.241 53.1591C167.029 53.1591 167.719 53.3466 168.31 53.7216C168.904 54.0966 169.366 54.6231 169.696 55.3011C170.029 55.9792 170.196 56.7727 170.196 57.6818C170.196 58.5833 170.029 59.3712 169.696 60.0455C169.366 60.7197 168.904 61.2443 168.31 61.6193C167.719 61.9943 167.029 62.1818 166.241 62.1818ZM166.241 60.9773C166.84 60.9773 167.332 60.8239 167.719 60.517C168.105 60.2102 168.391 59.8068 168.577 59.3068C168.762 58.8068 168.855 58.2652 168.855 57.6818C168.855 57.0985 168.762 56.5549 168.577 56.0511C168.391 55.5473 168.105 55.1402 167.719 54.8295C167.332 54.5189 166.84 54.3636 166.241 54.3636C165.643 54.3636 165.151 54.5189 164.764 54.8295C164.378 55.1402 164.092 55.5473 163.906 56.0511C163.721 56.5549 163.628 57.0985 163.628 57.6818C163.628 58.2652 163.721 58.8068 163.906 59.3068C164.092 59.8068 164.378 60.2102 164.764 60.517C165.151 60.8239 165.643 60.9773 166.241 60.9773ZM176.038 53.2727V54.4091H171.516V53.2727H176.038ZM172.834 51.1818H174.175V59.5C174.175 59.8788 174.23 60.1629 174.339 60.3523C174.453 60.5379 174.597 60.6629 174.771 60.7273C174.949 60.7879 175.137 60.8182 175.334 60.8182C175.482 60.8182 175.603 60.8106 175.697 60.7955C175.792 60.7765 175.868 60.7614 175.925 60.75L176.197 61.9545C176.107 61.9886 175.98 62.0227 175.817 62.0568C175.654 62.0947 175.447 62.1136 175.197 62.1136C174.819 62.1136 174.447 62.0322 174.084 61.8693C173.724 61.7064 173.425 61.4583 173.186 61.125C172.951 60.7917 172.834 60.3712 172.834 59.8636V51.1818ZM181.507 62.1818C180.689 62.1818 179.984 61.9886 179.393 61.6023C178.803 61.2159 178.348 60.6837 178.03 60.0057C177.712 59.3277 177.553 58.553 177.553 57.6818C177.553 56.7955 177.715 56.0133 178.041 55.3352C178.371 54.6534 178.829 54.1212 179.416 53.7386C180.007 53.3523 180.696 53.1591 181.484 53.1591C182.098 53.1591 182.651 53.2727 183.143 53.5C183.636 53.7273 184.039 54.0455 184.354 54.4545C184.668 54.8636 184.863 55.3409 184.939 55.8864H183.598C183.496 55.4886 183.268 55.1364 182.916 54.8295C182.568 54.5189 182.098 54.3636 181.507 54.3636C180.984 54.3636 180.526 54.5 180.132 54.7727C179.742 55.0417 179.437 55.4223 179.217 55.9148C179.001 56.4034 178.893 56.9773 178.893 57.6364C178.893 58.3106 179 58.8977 179.212 59.3977C179.428 59.8977 179.731 60.286 180.121 60.5625C180.515 60.839 180.977 60.9773 181.507 60.9773C181.856 60.9773 182.172 60.9167 182.456 60.7955C182.74 60.6742 182.981 60.5 183.178 60.2727C183.375 60.0455 183.515 59.7727 183.598 59.4545H184.939C184.863 59.9697 184.676 60.4337 184.376 60.8466C184.081 61.2557 183.689 61.5814 183.2 61.8239C182.715 62.0625 182.151 62.1818 181.507 62.1818ZM189.467 62.2045C188.914 62.2045 188.412 62.1004 187.962 61.892C187.511 61.6799 187.153 61.375 186.888 60.9773C186.623 60.5758 186.49 60.0909 186.49 59.5227C186.49 59.0227 186.589 58.6174 186.786 58.3068C186.982 57.9924 187.246 57.7462 187.575 57.5682C187.905 57.3902 188.268 57.2576 188.666 57.1705C189.068 57.0795 189.471 57.0076 189.876 56.9545C190.407 56.8864 190.837 56.8352 191.166 56.8011C191.5 56.7633 191.742 56.7008 191.893 56.6136C192.049 56.5265 192.126 56.375 192.126 56.1591V56.1136C192.126 55.553 191.973 55.1174 191.666 54.8068C191.363 54.4962 190.903 54.3409 190.286 54.3409C189.645 54.3409 189.143 54.4811 188.78 54.7614C188.416 55.0417 188.161 55.3409 188.013 55.6591L186.74 55.2045C186.967 54.6742 187.27 54.2614 187.649 53.9659C188.032 53.6667 188.448 53.4583 188.899 53.3409C189.354 53.2197 189.801 53.1591 190.24 53.1591C190.52 53.1591 190.842 53.1932 191.206 53.2614C191.573 53.3258 191.928 53.4602 192.268 53.6648C192.613 53.8693 192.899 54.178 193.126 54.5909C193.354 55.0038 193.467 55.5568 193.467 56.25V62H192.126V60.8182H192.058C191.967 61.0076 191.816 61.2102 191.604 61.4261C191.392 61.642 191.109 61.8258 190.757 61.9773C190.405 62.1288 189.975 62.2045 189.467 62.2045ZM189.672 61C190.202 61 190.649 60.8958 191.013 60.6875C191.38 60.4792 191.657 60.2102 191.842 59.8807C192.032 59.5511 192.126 59.2045 192.126 58.8409V57.6136C192.07 57.6818 191.945 57.7443 191.751 57.8011C191.562 57.8542 191.342 57.9015 191.092 57.9432C190.846 57.9811 190.606 58.0152 190.371 58.0455C190.14 58.072 189.952 58.0947 189.808 58.1136C189.46 58.1591 189.134 58.233 188.831 58.3352C188.532 58.4337 188.289 58.5833 188.104 58.7841C187.922 58.9811 187.831 59.25 187.831 59.5909C187.831 60.0568 188.003 60.4091 188.348 60.6477C188.696 60.8826 189.138 61 189.672 61ZM195.915 62V53.2727H197.21V54.6364H197.324C197.506 54.1705 197.799 53.8087 198.205 53.5511C198.61 53.2898 199.097 53.1591 199.665 53.1591C200.241 53.1591 200.72 53.2898 201.102 53.5511C201.489 53.8087 201.79 54.1705 202.006 54.6364H202.097C202.32 54.1856 202.655 53.8277 203.102 53.5625C203.549 53.2936 204.085 53.1591 204.71 53.1591C205.491 53.1591 206.129 53.4034 206.625 53.892C207.121 54.3769 207.369 55.1326 207.369 56.1591V62H206.028V56.1591C206.028 55.5152 205.852 55.0549 205.5 54.7784C205.148 54.5019 204.733 54.3636 204.256 54.3636C203.642 54.3636 203.167 54.5492 202.83 54.9205C202.492 55.2879 202.324 55.7538 202.324 56.3182V62H200.96V56.0227C200.96 55.5265 200.799 55.1269 200.477 54.8239C200.155 54.517 199.741 54.3636 199.233 54.3636C198.884 54.3636 198.559 54.4564 198.256 54.642C197.956 54.8277 197.714 55.0852 197.528 55.4148C197.347 55.7405 197.256 56.1174 197.256 56.5455V62H195.915ZM209.821 65.2727V53.2727H211.116V54.6591H211.276C211.374 54.5076 211.51 54.3144 211.685 54.0795C211.863 53.8409 212.116 53.6288 212.446 53.4432C212.779 53.2538 213.23 53.1591 213.798 53.1591C214.533 53.1591 215.181 53.3428 215.741 53.7102C216.302 54.0777 216.74 54.5985 217.054 55.2727C217.368 55.947 217.526 56.7424 217.526 57.6591C217.526 58.5833 217.368 59.3845 217.054 60.0625C216.74 60.7367 216.304 61.2595 215.747 61.6307C215.19 61.9981 214.548 62.1818 213.821 62.1818C213.26 62.1818 212.812 62.089 212.474 61.9034C212.137 61.714 211.878 61.5 211.696 61.2614C211.514 61.0189 211.374 60.8182 211.276 60.6591H211.162V65.2727H209.821ZM211.139 57.6364C211.139 58.2955 211.236 58.8769 211.429 59.3807C211.622 59.8807 211.904 60.2727 212.276 60.5568C212.647 60.8371 213.101 60.9773 213.639 60.9773C214.2 60.9773 214.668 60.8295 215.043 60.5341C215.421 60.2348 215.705 59.8333 215.895 59.3295C216.088 58.822 216.185 58.2576 216.185 57.6364C216.185 57.0227 216.09 56.4697 215.901 55.9773C215.715 55.4811 215.433 55.089 215.054 54.8011C214.679 54.5095 214.207 54.3636 213.639 54.3636C213.094 54.3636 212.635 54.5019 212.264 54.7784C211.893 55.0511 211.613 55.4337 211.423 55.9261C211.234 56.4148 211.139 56.9848 211.139 57.6364Z" fill="black"/>
</svg>
